<?xml version="1.0" encoding="UTF-8" standalone="no"?><svg width="378" height="308" viewBox="0 0 378 308" xmlns="http://www.w3.org/2000/svg" xmlns:xlink="http://www.w3.org/1999/xlink"><view id="adidas" viewBox="0 0 126 96"/><svg version="1" width="126" height="96" viewBox="-8 -8 126 96" overflow="visible"><g transform="matrix(.15679 0 0 .14728 10.49 12.38)" fill="#878787"><path d="M558.72 303.68H534.231c-.761-4.06-1.94-6.92-3.551-8.53-2.62-2.619-7.09-3.97-13.26-3.97-6.08 0-10.3 1.01-12.66 3.04-1.779 1.521-2.71 3.63-2.71 6.25 0 3.71 5.16 6.67 15.37 8.95 11.66 2.53 20.021 4.729 25.17 6.5 1.351.51 2.53.93 3.38 1.35 10.391 4.9 15.54 12.34 15.54 22.301 0 12.159-5.069 21.029-15.12 26.6-1.27.68-2.449 1.27-3.8 1.86-6.5 2.79-14.1 4.22-22.63 4.22-12.75 0-23.06-2.28-30.91-6.76-4.939-2.87-8.63-6.48-11.09-10.83-2.46-4.351-3.69-9.431-3.69-15.261h25.671c0 4.391 1.609 7.86 4.729 10.221 3.13 2.45 8.45 3.72 15.96 3.72 5.66 0 9.88-1.19 12.67-3.55 2.2-1.86 3.21-3.891 3.21-6.25 0-3.97-5.06-7.09-15.12-9.29-15.029-3.21-24.489-5.83-28.37-7.69-10.3-4.81-15.369-12.239-15.369-22.55 0-8.27 2.619-15.28 8.02-21.02 6.76-7.181 16.89-10.73 30.32-10.73 11.06 0 19.93 1.61 26.6 4.73.59.25 1.101.51 1.61.85 4.81 2.61 8.439 6.08 10.87 10.39 2.429 4.299 3.649 9.458 3.649 15.449zM545.63 243.89c0-.51-.08-.93-.34-1.27-.25-.42-.59-.681-1.09-.84-.34-.091-.851-.171-1.61-.261H538.71v4.73h3.88c1.101-.08 1.86-.25 2.28-.67.51-.43.76-1.019.76-1.689zm2.03-2.54c.51.681.76 1.44.76 2.28 0 1.18-.42 2.2-1.27 3.04-.841.85-1.94 1.36-3.29 1.439.59.25 1.01.511 1.35.841l2.36 3.13 1.859 3.12h-3.04l-1.439-2.53c-.92-1.6-1.681-2.79-2.36-3.38-.08-.08-.17-.17-.34-.25l-2.02-.59h-1.521v6.75h-2.54v-15.87h5.49c.34 0 .68.08.93.08 1.351 0 2.36.17 3.04.42.841.26 1.521.76 2.031 1.52z"/><path d="M554.84 247.1c0-2.2-.51-4.22-1.609-6.17a11.901 11.901 0 0 0-4.561-4.56c-1.939-1.011-3.97-1.601-6-1.601h-.08c-2.03 0-4.05.59-5.99 1.601a11.847 11.847 0 0 0-4.569 4.56c-1.09 1.95-1.681 3.97-1.681 6.17 0 2.11.591 4.13 1.681 6.08 1.02 1.851 2.54 3.38 4.479 4.47a12.11 12.11 0 0 0 6.08 1.61h.08c2.12 0 4.14-.51 6.09-1.61 1.94-1.09 3.46-2.619 4.471-4.47 1.099-1.951 1.609-3.97 1.609-6.08zm2.45 0c0 2.45-.6 4.9-1.95 7.26-1.26 2.36-3.04 4.141-5.399 5.4-2.37 1.36-4.73 1.95-7.271 1.95h-.08c-2.53 0-4.899-.59-7.26-1.95-2.37-1.26-4.14-3.04-5.41-5.4a14.416 14.416 0 0 1-1.939-7.26c0-2.62.59-5.069 1.939-7.439 1.35-2.36 3.13-4.13 5.49-5.4 2.37-1.27 4.729-1.86 7.18-1.939h.08c2.45 0 4.82.67 7.18 1.939 2.37 1.271 4.23 3.04 5.49 5.4 1.35 2.369 1.95 4.818 1.95 7.439zM305.37 19.25l31.58-19 76.68 127.52 69.34 115.53H371.58l-66.21-110.38-50.16-83.52zM463.97 323.52v47.38h-23.06v-5.239a49.325 49.325 0 0 1-27.021 8.029h-.26c-27.53-.17-49.91-22.64-49.91-50.17 0-27.529 22.38-49.989 49.91-50.16h.26c9.96 0 19.25 2.961 27.021 8.021v-5.49h23.06v47.629zm-23.06 5.24v-10.47c-2.45-12.67-13.68-22.3-27.021-22.3h-.26c-15.11.09-27.36 12.42-27.36 27.529 0 15.12 12.25 27.45 27.36 27.62h.26c13.341.001 24.571-9.709 27.021-22.379zM355.7 323.52v47.38h-23.05v-5.239c-7.86 5.069-17.061 8.029-27.03 8.029h-.25c-27.53-.17-49.91-22.64-49.91-50.17 0-27.529 22.38-49.989 49.91-50.16h.25c9.97 0 19.17 2.961 27.03 8.021V243.3h23.05v80.22zm-23.05 5.24v-10.47c-2.45-12.67-13.69-22.3-27.03-22.3h-.25c-15.12.09-27.36 12.42-27.36 27.529 0 15.12 12.24 27.45 27.36 27.62h.25c13.34.001 24.58-9.709 27.03-22.379zM159.44 134.36l79.13-47.64 66.8 111.139 27.19 45.441H221.25l-61.81-102.86-2.7-4.48zM221.34 273.359h25.08v97.54h-25.08zM221.34 243.8h25.08v22.04h-25.08zM209.85 323.52v47.38H186.8v-5.239c-7.85 5.069-17.14 8.029-27.11 8.029h-.25c-27.53-.17-49.91-22.64-49.91-50.17 0-27.529 22.38-49.989 49.91-50.16h.25c9.97 0 19.26 2.961 27.11 8.021V243.3h23.05v80.22zm-23.05 5.24v-10.47c-2.45-12.67-13.68-22.3-27.11-22.3h-.25c-15.12.09-27.36 12.42-27.36 27.529 0 15.12 12.24 27.45 27.36 27.62h.25c13.43.001 24.66-9.709 27.11-22.379zM58.35 222.439l81.83-49.149 19.26 32 22.8 38.01H70.85zM100.49 323.52v47.38H77.44v-5.239c-7.86 5.069-17.15 8.029-27.11 8.029h-.26C22.63 373.52.25 351.05.25 323.52c0-27.529 22.38-49.989 49.82-50.16h.26c9.96 0 19.25 2.961 27.11 8.021v-5.49h23.05v47.629zm-23.05 5.24v-10.47c-2.45-12.67-13.68-22.3-27.11-22.3h-.26c-15.03.09-27.27 12.42-27.27 27.529 0 15.12 12.24 27.45 27.27 27.62h.26c13.43.001 24.66-9.709 27.11-22.379z"/></g></svg><view id="arr-right" viewBox="338 192 32 32"/><svg width="32" height="32" viewBox="-8 -8 32 32" x="338" y="192"><path d="M5.965 11.166c.002-.173-.091.07.04-.05L9.856 7.9 6.305 4.327l1.56-1.285 4.53 4.413c.122.12.192.29.19.47a.642.642 0 0 1-.204.463l-4.662 4.28z" fill="#fff"/></svg><view id="arr-up" viewBox="304 192 34 32"/><svg width="34" height="32" viewBox="-8 -8 34 32" x="304" y="192"><path d="M14.972 12.054c-.304.001.127.109-.09-.048L9.093 7.423l-6.195 4.373L.585 9.938l7.643-5.574c.207-.15.507-.238.822-.239.316 0 .616.085.825.236l7.693 5.54z" fill="#fff"/></svg><view id="asics" viewBox="126 0 126 96"/><svg version="1" width="126" height="96" viewBox="-8 -8 104 80" x="126"><g transform="matrix(.02464 0 0 -.03128 7.855 73.872)" fill="#7e7e7e"><path d="M947.401 2000.318c-60-12-140-46-203-87-60-38-189-140-211-167-21-25-3-19 38 12 185 143 375 182 426 87 17-30 17-41 7-97-11-60-81-220-116-263-15-19-15-18-16 23 0 32-6 49-25 67-21 22-33 25-93 25-123 0-258-62-424-195-57-46-123-108-147-139-118-157-162-354-101-454 25-41 94-72 159-72 149 0 355 121 541 318 183 192 309 382 375 562 22 60 28 94 29 165 1 81-2 95-26 137-44 74-110 98-213 78zm-125-490c49-49 17-115-120-250-153-152-310-188-310-72 0 50 24 94 96 171 71 77 142 126 218 153 67 23 92 22 116-2zM1232.401 1511.318v-71h60c113 0 150-37 150-147v-72l-42 19c-117 53-264-5-325-128-25-51-24-183 1-232 50-96 127-140 259-148l87-4v142h-60c-77 0-124 20-150 62-40 66-13 155 55 184 44 18 59 18 102-2 47-23 61-47 73-132 17-119 70-202 152-236 71-30 78-25 78 52 0 63-2 70-25 82-14 8-35 28-45 46-18 28-20 50-20 236 0 230-9 281-60 336-52 54-104 75-202 80l-88 4v-71zM1802.401 1571.318c-83-26-148-81-177-148-7-18-13-63-13-100 0-93 24-137 111-209 86-70 99-88 99-137 0-31-7-46-34-73-19-19-41-34-50-34-13 0-16-12-16-70 0-81 5-84 87-49 72 31 108 63 137 121 56 113 21 229-98 323-60 47-96 96-96 131 0 34 33 83 65 98 18 9 56 16 84 16h52l-3 68-3 67-60 2c-33 1-71-2-85-6zM1992.401 1510.318v-70h130v140h-130v-70zM2462.401 1564.318c-176-47-277-159-302-334-25-181 31-331 155-415 62-42 190-85 253-85h44v128l-65 12c-176 33-276 169-247 337 18 110 86 182 207 221l55 17v68c0 77-1 78-100 51z" class="dnode"/><path d="M2716.401 1559.318c-124-47-185-168-154-300 13-53 39-85 163-198 67-61 56-146-24-180l-39-16v-67c0-64 1-68 23-68 33 0 138 53 169 86 39 42 58 95 58 166 0 88-26 136-112 205-72 58-98 95-98 137 0 72 52 116 138 116h52v140l-62-1c-38 0-84-8-114-20zM1992.401 1065.318v-335h130v670h-130v-335z" class="dnode"/></g></svg><view id="cart" viewBox="154 192 66 66"/><svg viewBox="-8 -8 66 66" width="66" height="66" fill="#7e7e7e" x="154" y="192"><g transform="matrix(1.3116 0 0 1.40228 12.228 15.272)" fill="#101010"><path d="M19.006 2.97a1.003 1.003 0 0 0-.756-.345H4.431l-.195-1.164A1 1 0 0 0 3.25.625H1a1 1 0 1 0 0 2h1.403l1.423 9.058 13.424-.058c.498-.002.92-.366.99-.858l1-7a1.002 1.002 0 0 0-.234-.797zM4.716 4.28l12.56-.03-.836 5.894-10.756.087z"/><circle r="1.5" cy="13.463" cx="7.269"/><circle r="1.5" cy="13.463" cx="13.991"/><rect transform="rotate(-.323)" ry=".865" y="6.291" x="6.626" height="2.48" width="3.836"/><rect transform="rotate(-.689)" ry=".865" y="6.377" x="11.488" height="2.48" width="3.836"/></g></svg><view id="facebook" viewBox="96 276 32 32"/><svg width="32" height="32" viewBox="-8 -8 32 32" x="96" y="276"><path fill="#5c5c5c" d="M9.5 3H12V0H9.5C7.57 0 6 1.57 6 3.5V5H4v3h2v8h3V8h2.5l.5-3H9V3.5c0-.271.229-.5.5-.5z"/></svg><view id="facebook-white" viewBox="64 276 32 32"/><svg width="32" height="32" viewBox="-8 -8 32 32" x="64" y="276"><path fill="#fff" d="M9.5 3H12V0H9.5C7.57 0 6 1.57 6 3.5V5H4v3h2v8h3V8h2.5l.5-3H9V3.5c0-.271.229-.5.5-.5z"/></svg><view id="instagram" viewBox="32 276 32 32"/><svg width="32" height="32" viewBox="-8 -8 32 32" x="32" y="276"><path fill="#5c5c5c" d="M14.5 0h-13C.675 0 0 .675 0 1.5v13c0 .825.675 1.5 1.5 1.5h13c.825 0 1.5-.675 1.5-1.5v-13c0-.825-.675-1.5-1.5-1.5zM11 2.5c0-.275.225-.5.5-.5h2c.275 0 .5.225.5.5v2c0 .275-.225.5-.5.5h-2a.501.501 0 0 1-.5-.5v-2zM8 5a3.001 3.001 0 0 1 0 6 3.001 3.001 0 0 1 0-6zm6 8.5c0 .275-.225.5-.5.5h-11a.501.501 0 0 1-.5-.5V7h1.1A4.999 4.999 0 0 0 8 13a4.999 4.999 0 0 0 4.9-6H14v6.5z"/></svg><view id="instagram-white" viewBox="0 276 32 32"/><svg width="32" height="32" viewBox="-8 -8 32 32" y="276"><path fill="#fff" d="M14.5 0h-13C.675 0 0 .675 0 1.5v13c0 .825.675 1.5 1.5 1.5h13c.825 0 1.5-.675 1.5-1.5v-13c0-.825-.675-1.5-1.5-1.5zM11 2.5c0-.275.225-.5.5-.5h2c.275 0 .5.225.5.5v2c0 .275-.225.5-.5.5h-2a.501.501 0 0 1-.5-.5v-2zM8 5a3.001 3.001 0 0 1 0 6 3.001 3.001 0 0 1 0-6zm6 8.5c0 .275-.225.5-.5.5h-11a.501.501 0 0 1-.5-.5V7h1.1A4.999 4.999 0 0 0 8 13a4.999 4.999 0 0 0 4.9-6H14v6.5z"/></svg><view id="magnifyingGlass" viewBox="88 192 66 66"/><svg viewBox="-8 -8 66 66" width="66" height="66" fill="#7e7e7e" x="88" y="192"><path d="M36.081 33.184l-4.975-4.914c-.026-.026-.057-.044-.085-.069a9.173 9.173 0 0 0 1.55-5.11c0-5.136-4.215-9.3-9.415-9.3-5.2 0-9.415 4.164-9.415 9.3 0 5.136 4.215 9.3 9.415 9.3 1.912 0 3.69-.565 5.174-1.532.025.027.043.058.07.084l4.975 4.914a1.93 1.93 0 0 0 2.706 0 1.874 1.874 0 0 0 0-2.673zm-12.925-4.017c-3.397 0-6.151-2.72-6.151-6.076 0-3.356 2.754-6.076 6.151-6.076s6.151 2.72 6.151 6.076c0 3.355-2.754 6.076-6.15 6.076z" clip-rule="evenodd" fill-rule="evenodd" fill="#101010"/></svg><view id="newBalance" viewBox="252 96 126 96"/><svg viewBox="-8 -8 126 96" height="96" width="126" x="252" y="96"><defs><clipPath id="ka"><path d="M55.36 702.312h98.302v53.869H55.36v-53.869z"/></clipPath></defs><g clip-path="url(#ka)" transform="matrix(.8952 0 0 -.92818 -37.571 717.256)" fill="#7e7e7e"><path d="M55.36 702.611h2.203v4.374c0 .78 0 1.74.399 2.303.397.612 1.11.811 1.508.811 1.856 0 1.856-2.188 1.856-2.948v-4.54h2.202v4.97c0 .714 0 2.253-.844 3.263-.761.93-1.972 1.28-2.766 1.28-1.393 0-2.155-.766-2.519-1.114v.798H55.36v-9.197"/><path d="M73.547 706.223c.063.297.132.68.132 1.11 0 2.317-1.84 4.84-4.756 4.84-2.834 0-4.838-2.389-4.838-4.989 0-2.683 2.121-4.872 4.855-4.872 2.154 0 3.91 1.54 4.44 3.197h-2.32c-.414-.762-1.142-1.175-2.12-1.175-1.574 0-2.436 1.292-2.536 1.89h7.143zm-7.209 1.773c.414 1.707 1.79 2.154 2.602 2.154 1.094 0 2.236-.679 2.485-2.154h-5.087" fill-rule="evenodd"/><path d="M76.507 702.611h1.356l1.74 5.964h.033l1.725-5.964h1.358l3.363 9.197H83.73l-1.692-5.618h-.032l-1.493 5.618h-1.754l-1.508-5.618h-.033l-1.673 5.618h-2.353l3.315-9.197z"/><path d="M90.347 702.611h2.02v1.11c.545-.614 1.327-1.409 3.1-1.409 3.362 0 4.572 3.098 4.572 4.94 0 2.432-1.822 4.871-4.622 4.871-1.028 0-2.106-.383-2.868-1.146v3.895h-2.202v-12.26zm2.069 4.721c0 1.342 1.044 2.767 2.734 2.767 1.393 0 2.686-1.075 2.686-2.867 0-1.787-1.21-2.899-2.652-2.899-1.292 0-2.768.961-2.768 3M110.326 711.808h-2.023v-1.163h-.033c-.067.134-1.178 1.479-3.048 1.479-2.551 0-4.607-2.039-4.607-4.858 0-3.064 2.105-4.954 4.475-4.954 1.158 0 2.518.615 3.213 1.439v-1.14h2.023v9.197zm-2.087-4.576c0-1.706-1.162-2.898-2.687-2.898-1.573 0-2.734 1.276-2.734 2.833 0 1.375.928 2.932 2.734 2.932 1.31 0 2.687-.96 2.687-2.867" fill-rule="evenodd"/><path d="M113.7 714.872h-2.203v-12.261h2.203v12.261z"/><path d="M124.071 711.808h-2.02v-1.163h-.035c-.067.134-1.178 1.479-3.048 1.479-2.554 0-4.607-2.039-4.607-4.858 0-3.064 2.105-4.954 4.474-4.954 1.16 0 2.517.615 3.215 1.439v-1.14h2.021v9.197zm-2.088-4.576c0-1.706-1.159-2.898-2.684-2.898-1.575 0-2.734 1.276-2.734 2.833 0 1.375.928 2.932 2.734 2.932 1.31 0 2.684-.96 2.684-2.867" fill-rule="evenodd"/><path d="M125.244 702.611h2.202v4.374c0 .78 0 1.74.4 2.303.396.612 1.111.811 1.507.811 1.855 0 1.855-2.188 1.855-2.948v-4.54h2.205v4.97c0 .714 0 2.253-.847 3.263-.762.93-1.97 1.28-2.766 1.28-1.393 0-2.153-.766-2.519-1.114v.798h-2.037v-9.197M141.242 705.61c-.58-.928-1.308-1.276-2.037-1.276-1.659 0-2.768 1.309-2.768 2.883 0 1.889 1.326 2.883 2.667 2.883 1.36 0 1.874-.878 2.138-1.341h2.487c-.945 2.834-3.466 3.365-4.625 3.365-2.535 0-4.87-2.058-4.87-4.872 0-3.05 2.532-4.94 4.888-4.94 2.154 0 3.86 1.244 4.607 3.298h-2.487"/><path d="M153.53 706.223c.065.297.131.68.131 1.11 0 2.317-1.838 4.84-4.754 4.84-2.834 0-4.839-2.389-4.839-4.989 0-2.683 2.121-4.872 4.855-4.872 2.153 0 3.911 1.54 4.44 3.197h-2.319c-.415-.762-1.142-1.175-2.12-1.175-1.576 0-2.437 1.292-2.534 1.89h7.14zm-7.208 1.773c.415 1.707 1.79 2.154 2.601 2.154 1.095 0 2.237-.679 2.485-2.154h-5.086M92.863 733.095l-2.945-5.086-16.3.917 1.631 2.833 17.614 1.336zm11.784 16.206l1.477-5.613-23.13 1.52 1.631 2.832 20.022 1.26zm-15.334 6.88l13.54-.01 1.021-3.838-16.19 1.016 1.63 2.832zm-1.19-31.335l-2.35-4.042-16.844-.018 1.631 2.83 17.563 1.23zm29.571 10.905l-4.077-7.067h3.883c1.8 0 5.023.898 6.015 3.46.92 2.38-.77 3.61-1.949 3.61l-3.872-.003zm3.888 6.76l3.387.02c2.254.013 4.605 1.044 5.465 3.136.793 1.94-.273 3.594-1.686 3.588l-3.276.004-3.89-6.748zm-15.33 1.177l3.42 5.933 11.574.743.404.72-10.707.749 2.504 4.348h19.856c6.106 0 10.623-2.182 8.867-8.602-.528-1.945-3.01-6.841-10.289-8.892 1.545-.184 5.393-1.89 4.73-6.31-1.178-7.837-11.326-11.568-16.97-11.57l-23.443-.011-1.155 4.535 12.278.866.417.718-13.317.81-1.435 5.377 18.95 1.106.411.712-34.043 2.148 1.631 2.83 36.644 2.38.415.713-10.743.697" fill-rule="evenodd"/></g></svg><view id="newEra" viewBox="252 0 126 96"/><svg viewBox="-8 -8 126 96" height="96" width="126" x="252"><g transform="matrix(.11167 0 0 -.08907 -176.666 370.24)"><path d="M1755.9 3463.61s0-67.86 72.18-38.5l294.96 113.08s25.98 4.32 34.64-11.07c0 0 6.25-32.71 44.75-30.8 0 0 25.02-4.32 75.54 31.76l199.21 114.52s1.44 2.88-3.37 8.66l-92.86 143.38s-14.92 27.91-53.89 31.75l-218.46 36.58s-17.32 46.67-84.2 64.95l-297.84 73.61s-39.94.49-37.05-39.46l66.39-498.46" fill="#7e7e7e"/><path d="M1843.96 3606.02l18.28-86.61 269.94 79.87s29.35 6.26 48.6 6.26c0 0 7.7 1.92 17.8-13.48 0 0 11.55-25.49 47.64-21.64 0 0 87.56 24.05 189.09 80.35 0 0 7.7 1.92 2.89 10.59l-14.44 22.13-229.03-66.88s-9.62-5.78-13.47 10.58c0 0-4.81 43.78-115.48 19.25l-221.82-40.42M1835.31 3652.69l119.33 16.85-56.3 191.5 84.2-11.54s25.02-2.41 39.94-42.83l44.74-121.74s82.28 7.71 92.86-7.69l-80.83 179.47s-17.32 28.87-63.51 37.53l-95.28 19.73s-23.58 3.37-26.94-22.61c0 0-3.85-4.34-5.3 1.44l-4.81 27.43-106.81 24.06 58.71-291.6" fill="#e1e1e1"/><path d="M2190.87 3774.91l-21.17 42.83 172.76-18.78s8.18 2.41 26.95-27.43l-178.54 3.38M2214.45 3726.32l175.15 10.11 16.38-25.04-168.91-33.19-22.62 48.12" fill="#e1e1e1" fill-opacity=".941"/></g></svg><view id="nike" viewBox="126 96 126 96"/><svg width="126" height="96" viewBox="127.5 353.38 126 96" overflow="visible" x="126" y="96"><path d="M157.9 418.006c-2.641-.115-4.803-.904-6.493-2.37-.323-.28-1.092-1.12-1.35-1.474-.685-.94-1.15-1.857-1.462-2.873-.956-3.127-.464-7.231 1.408-11.736 1.603-3.856 4.077-7.68 8.392-12.977a275.93 275.93 0 0 1 2.54-3.06c.006 0-.098.196-.228.433-1.122 2.052-2.082 4.47-2.605 6.561-.84 3.358-.739 6.239.297 8.473.714 1.539 1.939 2.872 3.316 3.61 2.411 1.289 5.941 1.395 10.252.311.296-.075 15.003-4.337 32.681-9.471 17.678-5.135 32.144-9.333 32.147-9.33.005.004-41.071 19.194-62.395 29.15-3.377 1.575-4.28 1.973-5.867 2.582-4.058 1.556-7.694 2.298-10.632 2.17z" fill="#7e7e7e"/></svg><view id="pinterest" viewBox="220 192 48 48"/><svg viewBox="-8 -8 48 48" width="48" height="48" fill="#5c5c5c" x="220" y="192"><g transform="matrix(.04019 0 0 .03496 6.295 7.719)"><path d="M430.149 135.248C416.865 39.125 321.076-9.818 218.873 1.642 138.071 10.701 57.512 76.03 54.168 169.447c-2.037 57.029 14.136 99.801 68.399 111.84 23.499-41.586-7.569-50.676-12.433-80.802C90.222 77.367 252.16-6.718 336.975 79.313c58.732 59.583 20.033 242.77-74.57 223.71-90.621-18.179 44.383-164.005-27.937-192.611-58.793-23.286-90.013 71.135-62.137 118.072-16.355 80.711-51.557 156.709-37.3 257.909 46.207-33.561 61.802-97.734 74.57-164.704 23.225 14.136 35.659 28.758 65.268 31.038 109.195 8.48 170.267-109.014 155.28-217.479z"/></g></svg><view id="pinterest-white" viewBox="268 192 36 36"/><svg width="36" height="36" viewBox="-8 -8 36 36" x="268" y="192"><g transform="matrix(.04019 0 0 .03496 .437 1.526)" fill="#fff"><path d="M430.149 135.248C416.865 39.125 321.076-9.818 218.873 1.642 138.071 10.701 57.512 76.03 54.168 169.447c-2.037 57.029 14.136 99.801 68.399 111.84 23.499-41.586-7.569-50.676-12.433-80.802C90.222 77.367 252.16-6.718 336.975 79.313c58.732 59.583 20.033 242.77-74.57 223.71-90.621-18.179 44.383-164.005-27.937-192.611-58.793-23.286-90.013 71.135-62.137 118.072-16.355 80.711-51.557 156.709-37.3 257.909 46.207-33.561 61.802-97.734 74.57-164.704 23.225 14.136 35.659 28.758 65.268 31.038 109.195 8.48 170.267-109.014 155.28-217.479z"/></g></svg><view id="puma" viewBox="0 96 126 96"/><svg version="1" width="126" height="96" viewBox="-8 -8 126 96" y="96"><g transform="matrix(.09934 0 0 .11328 13.14 -8.015)" fill="#7e7e7e"><path d="M460.543 193.01c-2.898.447-5.684 11.118-11.285 16.677-4.096 4.012-9.209 3.762-11.925 8.721-1.031 1.853-.697 5.016-1.867 8.053-2.285 6.074-10.338 6.617-10.338 13.235-.027 7.147 6.716 8.512 12.553 13.583 4.556 4.082 5.001 6.896 10.518 8.875 4.71 1.602 11.717-3.636 18.028-1.756 5.182 1.547 10.142 2.661 11.312 7.983 1.031 4.904-.07 12.51-6.352 11.633-2.118-.237-11.3-3.33-22.584-2.131-13.61 1.546-29.145 5.99-30.663 21.162-.836 8.484 9.654 18.487 19.783 16.453 7.007-1.38 3.692-9.64 7.509-13.653 5.001-5.14 33.338 17.944 59.683 17.944 11.09 0 19.337-2.8 27.53-11.382.765-.655 1.699-2.062 2.883-2.146 1.114.084 3.065 1.184 3.706 1.658 21.218 17.052 37.253 51.255 115.228 51.659 10.965.055 23.461 5.294 33.66 14.6 9.097 8.415 14.419 21.497 19.587 34.773 7.802 19.923 21.79 39.302 42.993 60.868 1.157 1.156 18.613 14.726 20.006 15.743.223.139 1.505 3.204 1.059 4.917-.516 12.93-2.396 50.53 25.634 52.23 6.855.349 5.057-4.472 5.057-7.787-.014-6.548-1.212-13.054 2.243-19.756 4.723-9.222-10.017-13.472-9.585-33.408.307-14.865-12.176-12.33-18.515-23.656-3.65-6.561-6.896-10.044-6.66-18.069 1.422-45.166-9.612-74.84-15.115-82.127-4.29-5.503-7.843-7.69-3.915-10.24 23.392-15.45 28.7-29.828 28.7-29.828 12.44-29.242 23.628-55.949 39.05-67.707 3.107-2.424 11.076-8.373 15.966-10.714 14.39-6.785 21.97-10.894 26.15-14.962 6.617-6.45 11.841-19.895 5.502-28.045-7.885-10.059-21.524-2.076-27.543 1.49-43.007 25.524-49.346 70.55-64.238 96.408-11.884 20.66-31.207 35.832-48.483 37.072-12.956.961-26.916-1.658-40.82-7.76-33.811-14.823-52.313-33.965-56.673-37.35-9.084-7.008-79.606-76.235-136.74-79.063 0 0-7.09-14.196-8.874-14.433-4.18-.53-8.457 8.484-11.521 9.53-2.884.96-7.733-9.767-10.644-9.293M209.02 606.182c-5.377-.125-9.947-4.542-9.947-10.003l.014-178.214h-58.735v196.45c0 9.627 7.801 17.485 17.372 17.485h102.663c9.64 0 17.345-7.858 17.345-17.484v-196.45h-58.68l-.056 178.213c0 5.461-4.57 9.878-9.975 10.003M405.68 417.965h-88.898c-10.518 0-19.086 8.554-19.086 19.184V631.9h58.791V453.255c.042-5.475 4.472-9.808 9.934-9.808 5.489 0 9.891 4.235 10.016 9.655V631.9h58.555V453.1c.07-5.419 4.472-9.654 9.947-9.654 5.434 0 9.92 4.333 9.961 9.808V631.9h58.792V437.15c0-10.63-8.582-19.185-19.1-19.185H405.68M61.75 453.63c.041-5.949-4.807-10.184-9.948-10.184h-9.975v108.207h9.975c5.183 0 9.989-4.123 9.947-10.044V453.63zm39.412 124.508H41.827V631.9h-58.708V417.965h118.419c10.602 0 18.877 8.61 18.877 19.268V558.87c0 10.672-8.595 19.268-19.253 19.268M715.158 584.058c-11.8 0-21.706 10.198-21.706 22.556 0 12.399 9.906 22.513 22.082 22.513 12.079 0 21.859-10.114 21.859-22.513 0-12.385-9.78-22.556-21.86-22.556h-.375zm26.442 22.486c0 14.53-11.647 26.345-26.066 26.345-14.573 0-26.275-11.73-26.275-26.345 0-14.336 11.702-26.317 25.843-26.317 14.851 0 26.498 11.62 26.498 26.317"/><path d="M712.817 604.872c4.082 0 6.228-1.449 6.228-4.346 0-2.578-2.076-3.901-6.047-3.901h-1.17v8.247h.99zm15.032 16.913h-7.007l-9.014-11.995v11.995h-5.726v-30.329h6.019c8.178 0 12.524 3.093 12.524 9 0 3.943-2.563 7.44-6.144 8.484l-.418.154 9.766 12.691M612.258 551.695v-98.51c-.139-5.448-4.527-9.627-10.002-9.627-5.42 0-9.906 4.346-9.948 9.78v98.357h19.95zm0 80.205v-53.707h-19.95V631.9h-58.68V437.15c0-10.63 8.568-19.185 19.087-19.185h99.137c10.547 0 19.114 8.554 19.114 19.184V631.9h-58.708"/></g></svg><view id="puma-white" viewBox="0 192 88 84"/><svg version="1" width="88" height="84" viewBox="-8 -8 88 84" y="192"><g transform="matrix(.0803 0 0 .07577 1.777 -.18)" fill="#fff"><path d="M460.543 193.01c-2.898.447-5.684 11.118-11.285 16.677-4.096 4.012-9.209 3.762-11.925 8.721-1.031 1.853-.697 5.016-1.867 8.053-2.285 6.074-10.338 6.617-10.338 13.235-.027 7.147 6.716 8.512 12.553 13.583 4.556 4.082 5.001 6.896 10.518 8.875 4.71 1.602 11.717-3.636 18.028-1.756 5.182 1.547 10.142 2.661 11.312 7.983 1.031 4.904-.07 12.51-6.352 11.633-2.118-.237-11.3-3.33-22.584-2.131-13.61 1.546-29.145 5.99-30.663 21.162-.836 8.484 9.654 18.487 19.783 16.453 7.007-1.38 3.692-9.64 7.509-13.653 5.001-5.14 33.338 17.944 59.683 17.944 11.09 0 19.337-2.8 27.53-11.382.765-.655 1.699-2.062 2.883-2.146 1.114.084 3.065 1.184 3.706 1.658 21.218 17.052 37.253 51.255 115.228 51.659 10.965.055 23.461 5.294 33.66 14.6 9.097 8.415 14.419 21.497 19.587 34.773 7.802 19.923 21.79 39.302 42.993 60.868 1.157 1.156 18.613 14.726 20.006 15.743.223.139 1.505 3.204 1.059 4.917-.516 12.93-2.396 50.53 25.634 52.23 6.855.349 5.057-4.472 5.057-7.787-.014-6.548-1.212-13.054 2.243-19.756 4.723-9.222-10.017-13.472-9.585-33.408.307-14.865-12.176-12.33-18.515-23.656-3.65-6.561-6.896-10.044-6.66-18.069 1.422-45.166-9.612-74.84-15.115-82.127-4.29-5.503-7.843-7.69-3.915-10.24 23.392-15.45 28.7-29.828 28.7-29.828 12.44-29.242 23.628-55.949 39.05-67.707 3.107-2.424 11.076-8.373 15.966-10.714 14.39-6.785 21.97-10.894 26.15-14.962 6.617-6.45 11.841-19.895 5.502-28.045-7.885-10.059-21.524-2.076-27.543 1.49-43.007 25.524-49.346 70.55-64.238 96.408-11.884 20.66-31.207 35.832-48.483 37.072-12.956.961-26.916-1.658-40.82-7.76-33.811-14.823-52.313-33.965-56.673-37.35-9.084-7.008-79.606-76.235-136.74-79.063 0 0-7.09-14.196-8.874-14.433-4.18-.53-8.457 8.484-11.521 9.53-2.884.96-7.733-9.767-10.644-9.293M209.02 606.182c-5.377-.125-9.947-4.542-9.947-10.003l.014-178.214h-58.735v196.45c0 9.627 7.801 17.485 17.372 17.485h102.663c9.64 0 17.345-7.858 17.345-17.484v-196.45h-58.68l-.056 178.213c0 5.461-4.57 9.878-9.975 10.003M405.68 417.965h-88.898c-10.518 0-19.086 8.554-19.086 19.184V631.9h58.791V453.255c.042-5.475 4.472-9.808 9.934-9.808 5.489 0 9.891 4.235 10.016 9.655V631.9h58.555V453.1c.07-5.419 4.472-9.654 9.947-9.654 5.434 0 9.92 4.333 9.961 9.808V631.9h58.792V437.15c0-10.63-8.582-19.185-19.1-19.185H405.68M61.75 453.63c.041-5.949-4.807-10.184-9.948-10.184h-9.975v108.207h9.975c5.183 0 9.989-4.123 9.947-10.044V453.63zm39.412 124.508H41.827V631.9h-58.708V417.965h118.419c10.602 0 18.877 8.61 18.877 19.268V558.87c0 10.672-8.595 19.268-19.253 19.268M715.158 584.058c-11.8 0-21.706 10.198-21.706 22.556 0 12.399 9.906 22.513 22.082 22.513 12.079 0 21.859-10.114 21.859-22.513 0-12.385-9.78-22.556-21.86-22.556h-.375zm26.442 22.486c0 14.53-11.647 26.345-26.066 26.345-14.573 0-26.275-11.73-26.275-26.345 0-14.336 11.702-26.317 25.843-26.317 14.851 0 26.498 11.62 26.498 26.317"/><path d="M712.817 604.872c4.082 0 6.228-1.449 6.228-4.346 0-2.578-2.076-3.901-6.047-3.901h-1.17v8.247h.99zm15.032 16.913h-7.007l-9.014-11.995v11.995h-5.726v-30.329h6.019c8.178 0 12.524 3.093 12.524 9 0 3.943-2.563 7.44-6.144 8.484l-.418.154 9.766 12.691M612.258 551.695v-98.51c-.139-5.448-4.527-9.627-10.002-9.627-5.42 0-9.906 4.346-9.948 9.78v98.357h19.95zm0 80.205v-53.707h-19.95V631.9h-58.68V437.15c0-10.63 8.568-19.185 19.087-19.185h99.137c10.547 0 19.114 8.554 19.114 19.184V631.9h-58.708"/></g></svg><view id="twitter" viewBox="128 276 32 32"/><svg width="32" height="32" viewBox="-8 -8 32 32" x="128" y="276"><path fill="#5c5c5c" d="M16 3.538a6.461 6.461 0 0 1-1.884.516 3.301 3.301 0 0 0 1.444-1.816 6.607 6.607 0 0 1-2.084.797 3.28 3.28 0 0 0-2.397-1.034 3.28 3.28 0 0 0-3.197 4.028 9.321 9.321 0 0 1-6.766-3.431 3.284 3.284 0 0 0 1.015 4.381A3.301 3.301 0 0 1 .643 6.57v.041A3.283 3.283 0 0 0 3.277 9.83a3.291 3.291 0 0 1-1.485.057 3.293 3.293 0 0 0 3.066 2.281 6.586 6.586 0 0 1-4.862 1.359 9.286 9.286 0 0 0 5.034 1.475c6.037 0 9.341-5.003 9.341-9.341 0-.144-.003-.284-.009-.425a6.59 6.59 0 0 0 1.637-1.697z"/></svg><view id="twitter-white" viewBox="160 276 32 32"/><svg width="32" height="32" viewBox="-8 -8 32 32" x="160" y="276"><path fill="#fff" d="M16 3.538a6.461 6.461 0 0 1-1.884.516 3.301 3.301 0 0 0 1.444-1.816 6.607 6.607 0 0 1-2.084.797 3.28 3.28 0 0 0-2.397-1.034 3.28 3.28 0 0 0-3.197 4.028 9.321 9.321 0 0 1-6.766-3.431 3.284 3.284 0 0 0 1.015 4.381A3.301 3.301 0 0 1 .643 6.57v.041A3.283 3.283 0 0 0 3.277 9.83a3.291 3.291 0 0 1-1.485.057 3.293 3.293 0 0 0 3.066 2.281 6.586 6.586 0 0 1-4.862 1.359 9.286 9.286 0 0 0 5.034 1.475c6.037 0 9.341-5.003 9.341-9.341 0-.144-.003-.284-.009-.425a6.59 6.59 0 0 0 1.637-1.697z"/></svg></svg>